<?xml version="1.0" standalone="no"?><!DOCTYPE svg PUBLIC "-//W3C//DTD SVG 1.1//EN" "http://www.w3.org/Graphics/SVG/1.1/DTD/svg11.dtd"><svg t="1589871266294" class="icon" viewBox="0 0 1117 1024" version="1.1" xmlns="http://www.w3.org/2000/svg" p-id="1608" xmlns:xlink="http://www.w3.org/1999/xlink" width="218.1640625" height="200"><defs><style type="text/css"></style></defs><path d="M465.430216 837.827914c51.336953 0 92.992957 41.656004 93.086043 93.086043a93.179129 93.179129 0 0 1-93.086043 93.086043 93.179129 93.179129 0 0 1-93.086043-93.086043c0.093086-51.430039 41.74909-93.086043 93.086043-93.086043z m372.344173 0c51.336953 0 92.992957 41.656004 93.086043 93.086043a93.179129 93.179129 0 0 1-93.086043 93.086043 93.179129 93.179129 0 0 1-93.086043-93.086043c0.093086-51.430039 41.74909-93.086043 93.086043-93.086043zM164.389952 30.213402c43.28501 28.065442 74.09649 73.258716 91.829382 134.835134l753.345348 1.489377c41.190574 0 65.718747 15.638455 79.076594 28.763587 30.066792 29.647905 28.577415 69.674903 28.298157 74.143034l-3.164926 20.478929c-7.074539 42.307607-26.994953 154.895176-58.783836 281.073308-18.47758 73.351802-45.612161 124.409497-80.519427 151.73025-22.014849 17.220918-42.400693 21.40979-55.153481 21.921763l-3.304555 0.093086c-1.675549 0-3.164925 0-4.421587-0.139629H439.179952c-44.122784 0-82.194976-15.359197-113.099543-45.612161-25.459033-24.993603-45.891419-59.76124-62.553821-106.44389-25.179775-70.559221-38.537622-158.618618-50.778436-253.007866l-5.585163-43.983155-7.679598-59.575068c-9.820578-74.049947-35.838127-126.643562-75.16698-152.195681a118.684705 118.684705 0 0 0-81.264116-17.220918 36.629358 36.629358 0 0 1-33.510976-9.308604 31.183824 31.183824 0 0 1-8.051942-31.835427A33.697148 33.697148 0 0 1 22.480279 4.242396L28.437786 2.659934C39.375396 0.612041 103.418594-9.25508 164.343409 30.213402z m105.280315 204.975468l14.893767 112.587569c11.170325 81.543374 23.643855 156.849983 45.193274 215.447647 13.032046 35.372696 28.670501 61.902219 46.403393 78.70425 17.546719 16.615859 37.141331 24.388543 61.809132 24.388543h473.156358c2.327151-0.46543 9.774035-2.652952 20.013499-13.032046 13.497476-13.86982 33.138631-43.424639 49.28906-105.373401 23.87657-92.387898 43.75044-185.61357 59.575068-279.444302-0.093086-5.259361-1.861721-17.034746-9.308604-24.062742-5.585163-5.166275-14.94031-7.819228-27.786184-7.819228l-733.238763-1.39629z" p-id="1609" fill="#d81e06"></path></svg>